<svg width="130" height="17" viewBox="0 0 130 17" fill="none" xmlns="http://www.w3.org/2000/svg">
<path d="M5.61488 6.27994C6.84688 6.27994 7.88288 6.83994 8.20488 8.04394H10.0949C9.80088 5.95794 7.99488 4.59994 5.65688 4.59994C2.57688 4.59994 0.546875 6.81194 0.546875 9.91994C0.546875 13.0699 2.54888 15.1559 5.41888 15.1559C6.80488 15.1559 7.96687 14.6099 8.52688 13.8259L8.63888 15.0019H10.1509V9.24794H5.39088V10.8299H8.48488V10.8719C8.48488 12.5099 7.40688 13.4899 5.62888 13.4899C3.73888 13.4899 2.42288 12.2439 2.42288 9.96194C2.42288 7.74994 3.58488 6.27994 5.61488 6.27994Z" fill="#F2F7EB"/>
<path d="M23.678 15.0019V11.1799H25.876L27.612 15.0019H29.572L27.626 10.8019C28.83 10.3119 29.474 9.33194 29.474 7.95994C29.474 5.94394 28.116 4.76794 25.792 4.76794H21.886V15.0019H23.678ZM23.678 6.36394H25.792C26.926 6.36394 27.598 6.93794 27.598 7.95994C27.598 8.99594 26.926 9.59794 25.792 9.59794H23.678V6.36394Z" fill="#F2F7EB"/>
<path d="M47.421 15.0019V13.3499H42.8569V10.6339H46.945V9.05194H42.8569V6.41994H47.421V4.76794H41.0649V15.0019H47.421Z" fill="#F2F7EB"/>
<path d="M63.6438 6.27994C64.8758 6.27994 65.9118 6.83994 66.2338 8.04394H68.1238C67.8298 5.95794 66.0238 4.59994 63.6858 4.59994C60.6058 4.59994 58.5758 6.81194 58.5758 9.91994C58.5758 13.0699 60.5778 15.1559 63.4478 15.1559C64.8338 15.1559 65.9958 14.6099 66.5558 13.8259L66.6678 15.0019H68.1798V9.24794H63.4198V10.8299H66.5138V10.8719C66.5138 12.5099 65.4358 13.4899 63.6578 13.4899C61.7678 13.4899 60.4518 12.2439 60.4518 9.96194C60.4518 7.74994 61.6138 6.27994 63.6438 6.27994Z" fill="#F2F7EB"/>
<path d="M89.253 9.87794C89.253 8.36594 88.777 7.07794 87.937 6.13994L88.987 4.75394H87.349L86.929 5.29994C86.187 4.83794 85.291 4.58594 84.283 4.58594C81.357 4.58594 79.327 6.76994 79.327 9.87794C79.327 11.3899 79.803 12.6919 80.629 13.6159L79.5929 14.9879H81.3009L81.679 14.4839C82.407 14.9319 83.289 15.1699 84.269 15.1699C87.209 15.1699 89.253 12.9859 89.253 9.87794ZM81.2029 9.87794C81.2029 7.69394 82.407 6.30794 84.283 6.30794C84.885 6.30794 85.417 6.44794 85.865 6.71394L81.777 12.1179C81.399 11.5299 81.2029 10.7739 81.2029 9.87794ZM87.363 9.87794C87.363 12.0339 86.159 13.4479 84.283 13.4479C83.695 13.4479 83.177 13.3079 82.743 13.0699L86.803 7.65194C87.167 8.23994 87.363 8.99594 87.363 9.87794Z" fill="#F2F7EB"/>
<path d="M102.513 15.0019V11.1799H104.711L106.447 15.0019H108.407L106.461 10.8019C107.665 10.3119 108.309 9.33194 108.309 7.95994C108.309 5.94394 106.951 4.76794 104.627 4.76794H100.721V15.0019H102.513ZM102.513 6.36394H104.627C105.761 6.36394 106.433 6.93794 106.433 7.95994C106.433 8.99594 105.761 9.59794 104.627 9.59794H102.513V6.36394Z" fill="#F2F7EB"/>
<path d="M121.692 4.76794H119.9V15.0019H121.692V4.76794Z" fill="#F2F7EB"/>
</svg>
