<svg width="40" height="26" viewBox="0 0 40 26" fill="none" xmlns="http://www.w3.org/2000/svg">
<rect width="40" height="26" rx="2" fill="#F6F9F0"/>
<g clip-path="url(#clip0_130_9802)">
<path d="M15.9873 7.58203V18.4154H13.5V7.58203H15.9873ZM22.1948 7.58203C22.1948 9.85378 21.3374 11.9722 19.8034 13.5772L19.6528 13.7305L23.0886 18.4154H20.0184L16.2847 13.3237L17.2483 12.6022C18.7964 11.443 19.7048 9.68911 19.76 7.76836L19.7628 7.58203H22.1948ZM25.1458 15.707C25.505 15.707 25.8494 15.8497 26.1034 16.1037C26.3573 16.3576 26.5 16.702 26.5 17.0612C26.5 17.4203 26.3573 17.7648 26.1034 18.0187C25.8494 18.2727 25.505 18.4154 25.1458 18.4154C24.7867 18.4154 24.4422 18.2727 24.1883 18.0187C23.9343 17.7648 23.7917 17.4203 23.7917 17.0612C23.7917 16.702 23.9343 16.3576 24.1883 16.1037C24.4422 15.8497 24.7867 15.707 25.1458 15.707Z" fill="#082220"/>
</g>
<defs>
<clipPath id="clip0_130_9802">
<rect width="13" height="13" fill="white" transform="translate(13.5 6.5)"/>
</clipPath>
</defs>
</svg>
