<svg width="40" height="26" viewBox="0 0 40 26" fill="none" xmlns="http://www.w3.org/2000/svg">
<rect width="40" height="26" rx="2" fill="#F6F9F0"/>
<path d="M19.9983 18.508C19.028 19.0781 17.9243 19.3817 16.799 19.3882C15.6736 19.3946 14.5666 19.1036 13.5898 18.5446C12.6131 17.9857 11.8014 17.1786 11.2369 16.2051C10.6723 15.2315 10.375 14.1261 10.375 13.0008C10.375 11.8754 10.6723 10.77 11.2369 9.7965C11.8014 8.82298 12.6131 8.01589 13.5898 7.45692C14.5666 6.89795 15.6736 6.60696 16.799 6.61339C17.9243 6.61981 19.028 6.92344 19.9983 7.49353C20.9686 6.92344 22.0722 6.61981 23.1976 6.61339C24.3229 6.60696 25.43 6.89795 26.4067 7.45692C27.3835 8.01589 28.1952 8.82298 28.7597 9.7965C29.3243 10.77 29.6216 11.8754 29.6216 13.0008C29.6216 14.1261 29.3243 15.2315 28.7597 16.2051C28.1952 17.1786 27.3835 17.9857 26.4067 18.5446C25.43 19.1036 24.3229 19.3946 23.1976 19.3882C22.0722 19.3817 20.9686 19.0781 19.9983 18.508V18.508ZM21.4875 17.297C22.1916 17.5832 22.9553 17.6919 23.7112 17.6136C24.4672 17.5353 25.1924 17.2724 25.8229 16.8481C26.4534 16.4237 26.97 15.8509 27.3271 15.1801C27.6843 14.5092 27.8711 13.7608 27.8711 13.0008C27.8711 12.2408 27.6843 11.4924 27.3271 10.8215C26.97 10.1506 26.4534 9.57782 25.8229 9.15347C25.1924 8.72911 24.4672 8.46623 23.7112 8.38795C22.9553 8.30966 22.1916 8.41838 21.4875 8.70453C22.5581 9.87901 23.1506 11.4116 23.1483 13.0008C23.1483 14.6545 22.5192 16.163 21.4875 17.297ZM18.509 8.70453C17.8049 8.41838 17.0413 8.30966 16.2853 8.38795C15.5294 8.46623 14.8042 8.72911 14.1737 9.15347C13.5432 9.57782 13.0266 10.1506 12.6695 10.8215C12.3123 11.4924 12.1255 12.2408 12.1255 13.0008C12.1255 13.7608 12.3123 14.5092 12.6695 15.1801C13.0266 15.8509 13.5432 16.4237 14.1737 16.8481C14.8042 17.2724 15.5294 17.5353 16.2853 17.6136C17.0413 17.6919 17.8049 17.5832 18.509 17.297C17.4384 16.1225 16.846 14.59 16.8483 13.0008C16.8483 11.347 17.4774 9.83853 18.509 8.70453ZM19.9983 9.68016C19.5545 10.1117 19.2019 10.628 18.9615 11.1985C18.721 11.7689 18.5975 12.3818 18.5983 13.0008C18.5983 14.3028 19.1347 15.4788 19.9983 16.3214C20.4421 15.8898 20.7946 15.3735 21.0351 14.8031C21.2756 14.2327 21.3991 13.6198 21.3983 13.0008C21.3991 12.3818 21.2756 11.7689 21.0351 11.1985C20.7946 10.628 20.4421 10.1117 19.9983 9.68016V9.68016Z" fill="#082220"/>
</svg>
