<svg width="40" height="26" viewBox="0 0 40 26" fill="none" xmlns="http://www.w3.org/2000/svg">
<rect width="40" height="26" rx="2" fill="#F6F9F0"/>
<path d="M25.9045 8.5H23.2773C23.0977 8.5 22.9448 8.63071 22.9168 8.80807L21.8543 15.5449C21.8333 15.6778 21.9359 15.7983 22.0706 15.7983H23.4186C23.5443 15.7983 23.6516 15.7067 23.671 15.5825L23.9724 13.6726C24.0003 13.4951 24.1532 13.3645 24.333 13.3645H25.1644C26.8949 13.3645 27.8936 12.527 28.1547 10.867C28.2722 10.1412 28.1594 9.57063 27.8194 9.1714C27.4458 8.73214 26.7835 8.5 25.9045 8.5ZM26.2078 10.9604C26.0642 11.9035 25.344 11.9035 24.6472 11.9035H24.2511L24.529 10.1427C24.5459 10.0365 24.6377 9.95805 24.7454 9.95805H24.9271C25.4013 9.95805 25.8494 9.95805 26.0802 10.2282C26.2183 10.3897 26.2601 10.6293 26.2078 10.9604Z" fill="#082220"/>
<path d="M7.16635 8.5H4.53908C4.35948 8.5 4.20657 8.63071 4.17847 8.80807L3.11599 15.5449C3.09509 15.6778 3.19782 15.7983 3.33243 15.7983H4.58691C4.7665 15.7983 4.91942 15.6675 4.94752 15.4901L5.23422 13.6726C5.2622 13.4951 5.41512 13.3645 5.59471 13.3645H6.42611C8.15669 13.3645 9.1554 12.527 9.41648 10.867C9.53396 10.1412 9.4212 9.57063 9.08137 9.1714C8.70741 8.73214 8.04522 8.5 7.16635 8.5ZM7.46946 10.9604C7.32588 11.9035 6.60559 11.9035 5.90904 11.9035H5.51265L5.79061 10.1427C5.80749 10.0365 5.89912 9.95805 6.00693 9.95805H6.18865C6.66286 9.95805 7.11086 9.95805 7.3417 10.2282C7.47985 10.3897 7.52165 10.6293 7.46946 10.9604Z" fill="#082220"/>
<path d="M15.0199 10.9308H13.762C13.6543 10.9308 13.5626 11.0092 13.5457 11.1157L13.4903 11.4675L13.4023 11.3402C13.1298 10.9445 12.5226 10.8125 11.9163 10.8125C10.5265 10.8125 9.3391 11.8658 9.10801 13.3432C8.98769 14.08 9.15844 14.7843 9.57632 15.2758C9.96019 15.7274 10.5081 15.9154 11.1608 15.9154C12.281 15.9154 12.9025 15.1956 12.9025 15.1956L12.8463 15.5454C12.8252 15.6783 12.9279 15.7988 13.0626 15.7988H14.1956C14.3752 15.7988 14.528 15.668 14.5561 15.4907L15.2363 11.184C15.2571 11.0509 15.1545 10.9308 15.0199 10.9308ZM13.2665 13.3795C13.1452 14.0984 12.5745 14.5809 11.8466 14.5809C11.4818 14.5809 11.1896 14.4635 11.0019 14.2414C10.8158 14.0211 10.7458 13.7073 10.8048 13.3578C10.9181 12.6454 11.4979 12.1473 12.2147 12.1473C12.5719 12.1473 12.862 12.2658 13.0534 12.4899C13.2461 12.7158 13.3218 13.0317 13.2665 13.3795Z" fill="#082220"/>
<path d="M33.7581 10.9308H32.5002C32.3924 10.9308 32.3006 11.0092 32.2839 11.1157L32.2284 11.4675L32.1405 11.3402C31.8679 10.9445 31.2608 10.8125 30.6545 10.8125C29.2646 10.8125 28.0773 11.8658 27.8463 13.3432C27.7259 14.08 27.8969 14.7843 28.3146 15.2758C28.6985 15.7274 29.2465 15.9154 29.8991 15.9154C31.0194 15.9154 31.6408 15.1956 31.6408 15.1956L31.5846 15.5454C31.5635 15.6783 31.6661 15.7988 31.8009 15.7988H32.9339C33.1135 15.7988 33.2662 15.668 33.2944 15.4907L33.9745 11.184C33.9956 11.0509 33.8927 10.9308 33.7581 10.9308ZM32.005 13.3795C31.8835 14.0984 31.3129 14.5809 30.5851 14.5809C30.22 14.5809 29.9281 14.4635 29.7402 14.2414C29.5542 14.0211 29.4841 13.7073 29.5431 13.3578C29.6565 12.6454 30.2361 12.1473 30.9529 12.1473C31.31 12.1473 31.6001 12.2658 31.7917 12.4899C31.9842 12.7158 32.06 13.0317 32.005 13.3795Z" fill="#082220"/>
<path d="M21.7213 10.9297H20.4568C20.3359 10.9297 20.2229 10.9898 20.1548 11.0897L18.4105 13.6587L17.6712 11.1902C17.6248 11.0356 17.4828 10.9297 17.3216 10.9297H16.0786C15.9285 10.9297 15.8229 11.0773 15.8712 11.2195L17.2636 15.3064L15.954 17.1541C15.8511 17.2992 15.9549 17.4999 16.1328 17.4999H17.3958C17.5157 17.4999 17.6278 17.4412 17.6959 17.3428L21.9013 11.2735C22.0019 11.1283 21.8979 10.9297 21.7213 10.9297Z" fill="#082220"/>
<path d="M35.2413 8.6848L34.1629 15.5449C34.142 15.6778 34.2446 15.7981 34.3792 15.7981H35.4637C35.6433 15.7981 35.7963 15.6674 35.8245 15.4901L36.8877 8.75328C36.9087 8.62032 36.8061 8.5 36.6713 8.5H35.4577C35.3498 8.49976 35.2581 8.57829 35.2413 8.6848Z" fill="#082220"/>
</svg>
