<svg width="40" height="26" viewBox="0 0 40 26" fill="none" xmlns="http://www.w3.org/2000/svg">
<g clip-path="url(#clip0_130_8886)">
<rect width="40" height="26" rx="2" fill="#F6F9F0"/>
<path d="M26.3525 9.05798C25.7009 8.82242 25.0128 8.70364 24.3199 8.70711C22.0825 8.70711 20.5014 9.83761 20.4918 11.4555C20.4734 12.6446 21.6126 13.3149 22.4736 13.7156C23.3582 14.126 23.654 14.3815 23.6496 14.7455C23.6452 15.3064 22.9426 15.5566 22.296 15.5566C21.3974 15.5566 20.91 15.4341 20.1584 15.1191L19.8793 14.987L19.5608 16.856C20.1076 17.0791 21.0876 17.2751 22.0991 17.2935C24.4826 17.2935 26.0366 16.1726 26.0541 14.4445C26.0725 13.4969 25.4626 12.7776 24.1632 12.1844C23.3792 11.802 22.8884 11.5412 22.8884 11.1492C22.8884 10.8027 23.3075 10.4387 24.1825 10.4387C24.7632 10.4242 25.3405 10.5312 25.8774 10.7529L26.0917 10.8482L26.4059 9.04836L26.3525 9.05798ZM32.1686 8.86198H30.4186C29.8717 8.86198 29.4657 9.0081 29.2242 9.5506L25.8607 17.1745H28.2399L28.7194 15.9259L31.6217 15.9302C31.6944 16.2216 31.8991 17.1736 31.8991 17.1736H34L32.1686 8.86198ZM17.27 8.79373H19.5354L18.1179 17.1097H15.8525L17.27 8.78935V8.79373ZM11.5099 13.3735L11.7417 14.5311L13.9607 8.86198H16.3626L12.7891 17.1605H10.3978L8.43775 10.1334C8.42273 10.075 8.39598 10.0203 8.35912 9.97259C8.32227 9.9249 8.27608 9.88523 8.22337 9.85598C7.51934 9.4898 6.77247 9.21263 6 9.03085L6.02712 8.85673H9.682C10.1746 8.87511 10.5754 9.03086 10.7119 9.55936L11.5099 13.3779V13.3735ZM29.3651 14.2257L30.2725 11.8974C30.2585 11.9192 30.4589 11.4187 30.5726 11.1037L30.7275 11.8186L31.2525 14.2205H29.3651V14.2257Z" fill="#082220"/>
</g>
<defs>
<clipPath id="clip0_130_8886">
<rect width="40" height="26" rx="2" fill="white"/>
</clipPath>
</defs>
</svg>
